<?xml version="1.0" encoding="UTF-8"?>
<svg id="Layer_1" data-name="Layer 1" xmlns="http://www.w3.org/2000/svg" width="1424.28" height="602.49" viewBox="0 0 1424.28 602.49">
  <defs>
    <style>
      .cls-1, .cls-2 {
        stroke-width: 0px;
      }

      .cls-3 {
        letter-spacing: -.02em;
      }

      .cls-4 {
        letter-spacing: -.03em;
      }

      .cls-5 {
        font-size: 75.36px;
      }

      .cls-6 {
        font-size: 204px;
      }

      .cls-7 {
        fill: none;
        stroke: #000;
        stroke-linecap: round;
        stroke-miterlimit: 10;
        stroke-width: 10px;
      }

      .cls-2 {
        fill: #9f1c20;
      }

      .cls-8 {
        font-family: LTRenovate-Bold, 'LT Renovate';
        font-size: 358.11px;
      }

      .cls-8, .cls-9 {
        font-weight: 700;
      }

      .cls-10 {
        letter-spacing: 0em;
      }

      .cls-9 {
        font-family: Calibri-Bold, Calibri;
      }
    </style>
  </defs>
  <path class="cls-2" d="M360.85,151.31h-76.86l-80.91,108.85v-109.28h-66.73v251.1h66.56v-8.48s.03-15.26.03-15.26l.02-11.99.02-16.3.09-61.83,76.27,114h76.86l-88.77-128.71,93.42-122.09Z"/>
  <text class="cls-8" transform="translate(353.65 402.07)"><tspan x="0" y="0">P</tspan></text>
  <path class="cls-1" d="M204.11,281.39l-.42,7.64-.63,11.75v.03l-.05.81-4.52-1.58c.63,2.86-6.4,18.1-6.4,18.1-3.1,4.57-8.25,38.34-8.25,38.34-.77,7.26,6.54,11.4,6.54,11.4l12.52,11.91v12s-.03,10.19-.03,10.19h-11.85l-29.94-24.55c-5.3-1.15-5.42-7.98-5.42-7.98l-3.46-30.64-15.85,11.85v-49.22c4.39-7.47,9.47-16.77,9.47-16.77,5.92-15.68,0-25.23,0-25.23l-7.48-14.26c-.69.42-1.36.8-1.99,1.15-1.07.6-2.06,1.14-3,1.61-5.84,2.95-9.19,3.66-9.19,3.66-8.72,3.72-7.78-3.84-7.78-3.84-2.1.54-3.96.42-5.6-.08-5.31-1.61-8.2-7.18-8.2-7.18-3.36-5.55-3.97-9.69-3.97-9.69-2.18-3.42.31-4.57.31-4.57l-1.24-8.97c2.48-8.27-7.34-8.12-7.34-8.12-8.08,1.15-9.02-4.56-9.02-4.56-5.3,3.29-4.83-2.85-4.83-2.85l-2.49.14-1.25-1.71-.63,2.3h-7.81c.37,3.08-1.97,2.61-1.97,2.61h-11.41c-2.04-.39-.2-1.72-.2-1.72l4.13-1.19c1.58-.93,0-.89,0-.89-6.95-6.07,0-10.62,0-10.62,1.97-.67-.07-1.14-.07-1.14l-4.26-.94c-1.32-1.67.59-2.1.59-2.1h11.17l1.78.12v2.44l7.44-.12,1.24,2.56,1.41-1.85h15.89v-5.28l9.18.14v2.13h3.45l.16-7.97c-10.02-3.12-3.96-6.53-1.34-7.72h.01c1.87-1.03,6.78-4.18,9.29-5.81.94-.61,1.55-1.01,1.55-1.01,5.45-3.28,10.12-1.44,10.12-1.44l8.41,2.73c.93.34,1.74.76,2.49,1.24,1.19.74,2.17,1.65,3,2.59,3.45,3.98,4.01,8.98,4.01,8.98l2.18,8.4,8.25-5.84,4.87,4.7c8.92-.86,13.22,7.99,13.22,7.99,1.1,0,8.72,15.8,8.72,15.8.78,0,11.22,29.64,11.22,29.64.63,13.82,9.98,27.65,9.98,27.65,1.87,1.7,5.3,14.82,5.3,14.82Z"/>
  <text class="cls-9" transform="translate(655.63 308.98)"><tspan class="cls-6"><tspan class="cls-10" x="0" y="0">S</tspan><tspan x="94.43" y="0">TUDIO</tspan></tspan><tspan class="cls-5"><tspan x="16.42" y="67.91">&amp; PH</tspan><tspan class="cls-3" x="174.22" y="67.91">O</tspan><tspan class="cls-4" x="223.53" y="67.91">T</tspan><tspan x="258.82" y="67.91">O FRAMING</tspan></tspan></text>
  <polyline class="cls-7" points="645.85 397.38 1335.15 397.38 1335.15 228.27"/>
  <polyline class="cls-7" points="1309.11 156.11 624.56 156.11 624.56 321.75"/>
</svg>