<?xml version="1.0" encoding="UTF-8"?>
<svg id="Layer_2" data-name="Layer 2" xmlns="http://www.w3.org/2000/svg" width="467.54" height="253.84" viewBox="0 0 467.54 253.84">
  <defs>
    <style>
      .cls-1 {
        font-family: Salks, Salks;
        font-size: 20px;
      }

      .cls-1, .cls-2 {
        fill: #fff;
      }

      .cls-2, .cls-3 {
        stroke-width: 0px;
      }

      .cls-4 {
        letter-spacing: .14em;
      }

      .cls-5 {
        letter-spacing: .14em;
      }

      .cls-6 {
        letter-spacing: .14em;
      }

      .cls-7 {
        letter-spacing: .12em;
      }

      .cls-8 {
        letter-spacing: .06em;
      }

      .cls-3 {
        fill: #9c0a0e;
      }

      .cls-9 {
        letter-spacing: .07em;
      }
    </style>
  </defs>
  <g id="Layer_1-2" data-name="Layer 1">
    <path class="cls-2" d="M7.04,130.28v12.17l12.17-12.17h9.95l-16.16,16.16c1.22,4.81,3.01,8.25,5.34,10.49,2.62,2.52,6.03,3.86,11.32,3.86v7.04c-6.59,0-12.17-1.95-16.2-5.83-2.72-2.62-4.69-5.97-6.1-9.92l-.31.31v15.41H0v-37.52h7.04Z"/>
    <path class="cls-2" d="M56.47,130.3l17.54,37.52h-7.77l-4.1-8.77h-17.71l-4.1,8.77h-7.76l17.53-37.52h6.37ZM47.72,152.01h11.13l-5.57-11.91-5.57,11.91Z"/>
    <path class="cls-2" d="M77.07,130.3h8.28l16.42,26.41v-26.41h7.04v37.52h-8.41l-16.44-26.45v26.48h-7.04v-37.55h.15Z"/>
    <path class="cls-2" d="M146.7,136.29l-4.84,4.71c-3.62-3.72-9.25-4.93-14.17-3.01s-8.07,6.51-8.06,11.6c.01,5.09,3.18,9.67,8.11,11.57,4.93,1.9,10.54.67,14.15-3.06l4.86,4.69c-5.52,5.72-14.01,7.55-21.45,4.67s-12.41-9.96-12.43-17.86c-.02-7.9,4.92-15,12.36-17.91,2.32-.91,4.75-1.36,7.16-1.37,5.3-.03,10.5,2.04,14.31,5.96Z"/>
    <path class="cls-2" d="M157.29,130.3v14.92h17.77v-14.92h7.04v37.52h-7.04v-15.56h-17.77v15.56h-7.04v-37.52h7.04Z"/>
    <path class="cls-2" d="M208.92,130.3l17.54,37.52h-7.77l-4.1-8.77h-17.71l-4.1,8.77h-7.76l17.53-37.52h6.37ZM200.17,152.01h11.13l-5.57-11.91-5.57,11.91Z"/>
    <path class="cls-2" d="M229.52,130.3h8.28l16.42,26.41v-26.41h7.04v37.52h-8.41l-16.44-26.45v26.48h-7.04v-37.55h.15Z"/>
    <path class="cls-2" d="M307.13,135.05l-3.93,5.84c-3.87-2.61-9.44-3.87-13.5-3.5-2.03.19-3.63.79-4.49,1.43s-1.13,1.07-1.13,2.21c0,1.73.25,1.8,1.83,2.54,1.58.74,4.44,1.26,7.54,1.76,3.1.5,6.46.98,9.53,2.57,3.07,1.59,5.75,5.05,5.75,9.37,0,3.54-1.84,6.68-4.41,8.54-2.57,1.86-5.72,2.71-9.03,2.89-6.61.37-14.14-1.88-19.41-7.28l5.03-4.92c3.51,3.59,9.39,5.42,13.99,5.17,2.3-.13,4.21-.78,5.29-1.56,1.09-.79,1.5-1.45,1.5-2.85,0-2.05-.4-2.32-1.95-3.12-1.55-.8-4.36-1.38-7.42-1.87s-6.36-.91-9.41-2.33c-3.05-1.42-5.88-4.74-5.88-8.91,0-3.21,1.64-6.11,3.94-7.84,2.3-1.73,5.11-2.53,8.06-2.8.74-.07,1.49-.1,2.25-.11,5.32-.02,11.07,1.57,15.83,4.77Z"/>
    <path class="cls-2" d="M343.4,130.27v7.04h-12.66v30.51h-7.04v-30.51h-12.66v-7.04h32.35Z"/>
    <path class="cls-2" d="M353.94,130.3v20.88c0,3.54,1.16,5.75,2.79,7.27,1.64,1.52,3.91,2.33,6.22,2.33,2.32,0,4.59-.82,6.22-2.34s2.8-3.73,2.8-7.26v-20.88h7.03v20.88c0,5.21-1.98,9.56-5.04,12.41-3.06,2.85-7.06,4.22-11.01,4.23-3.95,0-7.95-1.37-11.02-4.22-3.07-2.85-5.04-7.2-5.04-12.42v-20.88h7.04Z"/>
    <path class="cls-2" d="M395.77,130.28c5.74,0,10.49,2.42,13.53,6.02,3.04,3.59,4.47,8.19,4.48,12.75s-1.39,9.17-4.43,12.77c-3.04,3.6-7.81,6.02-13.58,6.02l-12.66-.02v-37.52l12.66-.02ZM390.14,160.81h5.63c3.93,0,6.42-1.4,8.21-3.52,1.79-2.12,2.78-5.14,2.77-8.21,0-3.07-1.02-6.1-2.82-8.23-1.8-2.13-4.28-3.52-8.16-3.52h-5.63v23.49Z"/>
    <path class="cls-2" d="M424.9,130.3v37.52h-7.04v-37.52h7.04Z"/>
    <path class="cls-2" d="M467.54,149.57c0,10.6-8.67,19.27-19.27,19.27s-19.27-8.67-19.27-19.27,8.67-19.27,19.27-19.27,19.27,8.67,19.27,19.27ZM436.04,149.57c0,6.8,5.43,12.23,12.23,12.23s12.23-5.43,12.23-12.23-5.43-12.23-12.23-12.23-12.23,5.43-12.23,12.23Z"/>
    <path class="cls-3" d="M2.96,102.52c-1.38,0-2.5-1.12-2.5-2.5v-39.04c0-4.85,3.95-8.8,8.8-8.8h49.58c1.38,0,2.5,1.12,2.5,2.5s-1.12,2.5-2.5,2.5H9.26c-2.1,0-3.8,1.7-3.8,3.8v39.04c0,1.38-1.12,2.5-2.5,2.5Z"/>
    <path class="cls-2" d="M10.55,101.64c-.55,0-1-.45-1-1v-33.02c0-3.54,2.88-6.43,6.43-6.43h41.95c.55,0,1,.45,1,1s-.45,1-1,1H15.98c-2.44,0-4.43,1.99-4.43,4.43v33.02c0,.55-.45,1-1,1Z"/>
    <path class="cls-2" d="M57.89,236.44H15.94c-3.54,0-6.43-2.88-6.43-6.43v-33.01c0-.55.45-1,1-1s1,.45,1,1v33.01c0,2.44,1.99,4.43,4.43,4.43h41.95c.55,0,1,.45,1,1s-.45,1-1,1Z"/>
    <path class="cls-2" d="M451.58,236.43h-41.95c-.55,0-1-.45-1-1s.45-1,1-1h41.95c2.44,0,4.43-1.99,4.43-4.43v-33.02c0-.55.45-1,1-1s1,.45,1,1v33.02c0,3.54-2.88,6.43-6.43,6.43Z"/>
    <path class="cls-2" d="M457,101.91c-.55,0-1-.45-1-1v-33.02c0-2.44-1.99-4.43-4.43-4.43h-41.95c-.55,0-1-.45-1-1s.45-1,1-1h41.95c3.54,0,6.43,2.88,6.43,6.43v33.02c0,.55-.45,1-1,1Z"/>
    <path class="cls-3" d="M58.84,245.51H9.37c-4.91,0-8.9-3.99-8.9-8.9v-38.94c0-1.38,1.12-2.5,2.5-2.5s2.5,1.12,2.5,2.5v38.94c0,2.15,1.75,3.9,3.9,3.9h49.47c1.38,0,2.5,1.12,2.5,2.5s-1.12,2.5-2.5,2.5Z"/>
    <path class="cls-3" d="M458.15,245.51h-49.47c-1.38,0-2.5-1.12-2.5-2.5s1.12-2.5,2.5-2.5h49.47c2.15,0,3.9-1.75,3.9-3.9v-38.94c0-1.38,1.12-2.5,2.5-2.5s2.5,1.12,2.5,2.5v38.94c0,4.91-3.99,8.9-8.9,8.9Z"/>
    <path class="cls-3" d="M464.56,102.75c-1.38,0-2.5-1.12-2.5-2.5v-38.94c0-2.15-1.75-3.9-3.9-3.9h-49.47c-1.38,0-2.5-1.12-2.5-2.5s1.12-2.5,2.5-2.5h49.47c4.91,0,8.9,3.99,8.9,8.9v38.94c0,1.38-1.12,2.5-2.5,2.5Z"/>
    <path class="cls-2" d="M330.42,58.02c-.83,0-1.65-.42-2.12-1.18l-27.14-43.62c-3.2-5.14-8.73-8.21-14.78-8.21h-106.24c-6.08,0-11.62,3.09-14.81,8.26l-26.59,43.02c-.73,1.18-2.27,1.54-3.44.81-1.17-.73-1.54-2.27-.81-3.44l26.59-43.02c4.11-6.66,11.24-10.63,19.07-10.63h106.24c7.8,0,14.91,3.95,19.03,10.57l27.14,43.62c.73,1.17.37,2.71-.8,3.44-.41.26-.87.38-1.32.38Z"/>
    <path class="cls-2" d="M322.87,58.98c-.33,0-.66-.17-.85-.47l-25.02-39.94c-3.19-5.09-8.7-8.13-14.74-8.13h-97.97c-6.06,0-11.58,3.06-14.77,8.17l-24.52,39.39c-.29.47-.91.61-1.38.32-.47-.29-.61-.91-.32-1.38l24.52-39.39c3.55-5.71,9.71-9.12,16.47-9.12h97.97c6.74,0,12.88,3.39,16.44,9.07l25.02,39.94c.29.47.15,1.09-.32,1.38-.17.1-.35.15-.53.15Z"/>
    <g>
      <path class="cls-2" d="M330.39,127.17c-2.2,0-4.21-1.46-4.82-3.68-11.27-41.23-49.03-70.03-91.8-70.03s-80.53,28.8-91.81,70.03c-.73,2.66-3.48,4.23-6.14,3.5-2.66-.73-4.23-3.48-3.5-6.14,12.46-45.57,54.18-77.39,101.45-77.39s88.99,31.83,101.45,77.39c.73,2.66-.84,5.41-3.5,6.14-.44.12-.88.18-1.32.18Z"/>
      <path class="cls-2" d="M233.77,253.84c-47.27,0-88.99-31.83-101.45-77.39-.73-2.66.84-5.41,3.5-6.14,2.66-.73,5.41.84,6.14,3.5,11.27,41.23,49.03,70.03,91.81,70.03s80.53-28.8,91.8-70.03c.73-2.66,3.48-4.23,6.14-3.5,2.66.73,4.23,3.48,3.5,6.14-12.46,45.57-54.18,77.39-101.45,77.39Z"/>
    </g>
    <g>
      <path class="cls-2" d="M319.55,126.14c-.44,0-.84-.29-.96-.74-10.42-38.1-45.29-64.7-84.82-64.7s-74.4,26.61-84.82,64.7c-.15.53-.7.84-1.23.7-.53-.15-.85-.7-.7-1.23,10.65-38.96,46.33-66.18,86.75-66.18s76.09,27.21,86.75,66.18c.15.53-.17,1.08-.7,1.23-.09.02-.18.04-.26.04Z"/>
      <path class="cls-2" d="M233.77,238.59c-40.42,0-76.09-27.21-86.75-66.17-.15-.53.17-1.08.7-1.23.53-.14,1.08.17,1.23.7,10.42,38.1,45.29,64.7,84.82,64.7s74.4-26.61,84.82-64.7c.15-.53.7-.84,1.23-.7.53.15.85.7.7,1.23-10.65,38.96-46.33,66.17-86.75,66.17Z"/>
    </g>
    <text class="cls-1" transform="translate(155.92 186.14)"><tspan class="cls-5" x="0" y="0">PH</tspan><tspan class="cls-9" x="26.34" y="0">O</tspan><tspan class="cls-8" x="40.88" y="0">T</tspan><tspan class="cls-5" x="53.11" y="0">OF</tspan><tspan class="cls-7" x="80.27" y="0">RA</tspan><tspan class="cls-6" x="109.08" y="0">MI</tspan><tspan class="cls-4" x="130.01" y="0">N</tspan><tspan class="cls-9" x="143.68" y="0">G</tspan></text>
    <rect class="cls-2" x="413.74" y="33.51" width="40.05" height="11.18" rx="5.59" ry="5.59"/>
    <path class="cls-2" d="M449.13,47.67h-30.73c-4.72,0-8.57-3.84-8.57-8.57s3.84-8.57,8.57-8.57h30.73c4.72,0,8.57,3.84,8.57,8.57s-3.84,8.57-8.57,8.57ZM418.39,31.53c-4.17,0-7.57,3.4-7.57,7.57s3.39,7.57,7.57,7.57h30.73c4.17,0,7.57-3.39,7.57-7.57s-3.4-7.57-7.57-7.57h-30.73Z"/>
  </g>
</svg>